<svg width="800" height="660" viewBox="0 0 800 660" fill="none" xmlns="http://www.w3.org/2000/svg">
<path d="M798.047 413.242C798.047 446.055 791.797 477.109 779.297 506.406C766.797 535.312 749.609 560.508 727.734 581.992C706.25 603.477 680.859 620.469 651.562 632.969C622.656 645.469 591.602 651.719 558.398 651.719C528.711 651.719 500.195 646.641 472.852 636.484C445.508 625.938 420.703 610.703 398.438 590.781C376.562 610.703 351.953 625.938 324.609 636.484C297.656 646.641 269.141 651.719 239.062 651.719C205.859 651.719 174.805 645.469 145.898 632.969C116.992 620.469 91.6016 603.477 69.7266 581.992C48.2422 560.508 31.25 535.312 18.75 506.406C6.25 477.109 0 446.055 0 413.242V13.6328H159.961V413.242C159.961 424.18 161.914 434.531 165.82 444.297C170.117 453.672 175.781 462.07 182.812 469.492C190.234 476.523 198.633 482.188 208.008 486.484C217.773 490.391 228.125 492.344 239.062 492.344C250 492.344 260.352 490.391 270.117 486.484C279.883 482.188 288.477 476.523 295.898 469.492C303.32 462.07 308.984 453.672 312.891 444.297C317.188 434.531 319.336 424.18 319.336 413.242V13.6328H478.711V413.242C478.711 424.18 480.859 434.531 485.156 444.297C489.453 453.672 495.117 462.07 502.148 469.492C509.57 476.523 517.969 482.188 527.344 486.484C537.109 490.391 547.461 492.344 558.398 492.344C569.336 492.344 579.688 490.391 589.453 486.484C599.219 482.188 607.617 476.523 614.648 469.492C622.07 462.07 627.93 453.672 632.227 444.297C636.523 434.531 638.672 424.18 638.672 413.242V13.6328H798.047V413.242Z" fill="#537AF2"/>
</svg>
