<svg width="200" height="55" viewBox="0 0 200 55" fill="none" xmlns="http://www.w3.org/2000/svg">
<path d="M199.623 54H191.654V34.0781C191.654 33.5312 191.547 33.0137 191.332 32.5254C191.137 32.0371 190.854 31.6074 190.482 31.2363C190.111 30.8652 189.682 30.582 189.193 30.3867C188.705 30.1719 188.188 30.0645 187.641 30.0645C187.094 30.0645 186.576 30.1719 186.088 30.3867C185.619 30.582 185.199 30.8652 184.828 31.2363C184.477 31.6074 184.193 32.0371 183.979 32.5254C183.783 33.0137 183.686 33.5312 183.686 34.0781V54H175.688V34.0781C175.688 33.5312 175.58 33.0137 175.365 32.5254C175.17 32.0371 174.887 31.6074 174.516 31.2363C174.145 30.8652 173.715 30.582 173.227 30.3867C172.738 30.1719 172.221 30.0645 171.674 30.0645C171.127 30.0645 170.609 30.1719 170.121 30.3867C169.652 30.582 169.232 30.8652 168.861 31.2363C168.51 31.6074 168.227 32.0371 168.012 32.5254C167.816 33.0137 167.719 33.5312 167.719 34.0781V54H159.721V22.623H161.654L163.822 25.0254C164.936 24.0879 166.156 23.3652 167.484 22.8574C168.832 22.3301 170.229 22.0664 171.674 22.0664C173.139 22.0664 174.564 22.3398 175.951 22.8867C177.357 23.4336 178.588 24.3809 179.643 25.7285C180.131 25.0645 180.688 24.498 181.312 24.0293C181.938 23.5605 182.592 23.1797 183.275 22.8867C183.979 22.5938 184.701 22.3887 185.443 22.2715C186.186 22.1348 186.918 22.0664 187.641 22.0664C189.301 22.0664 190.854 22.3789 192.299 23.0039C193.764 23.6289 195.033 24.4883 196.107 25.582C197.201 26.6562 198.061 27.9258 198.686 29.3906C199.311 30.8555 199.623 32.418 199.623 34.0781V54Z" fill="#537AF2"/>
<path d="M157.297 38.0332C157.297 40.377 156.877 42.5645 156.037 44.5957C155.197 46.6074 154.055 48.3555 152.609 49.8398C151.164 51.3047 149.465 52.4668 147.512 53.3262C145.578 54.166 143.498 54.5859 141.271 54.5859C139.064 54.5859 136.984 54.166 135.031 53.3262C133.098 52.4668 131.398 51.3047 129.934 49.8398C128.488 48.3555 127.346 46.6074 126.506 44.5957C125.666 42.5645 125.246 40.377 125.246 38.0332C125.246 35.6504 125.666 33.4434 126.506 31.4121C127.346 29.3809 128.488 27.6328 129.934 26.168C131.398 24.6836 133.098 23.5215 135.031 22.6816C136.984 21.8418 139.064 21.4219 141.271 21.4219C143.498 21.4219 145.578 21.8223 147.512 22.623C149.465 23.4043 151.164 24.5273 152.609 25.9922C154.055 27.4375 155.197 29.1855 156.037 31.2363C156.877 33.2676 157.297 35.5332 157.297 38.0332ZM149.24 38.0332C149.24 36.7441 149.025 35.582 148.596 34.5469C148.186 33.4922 147.619 32.5938 146.896 31.8516C146.174 31.0898 145.324 30.5137 144.348 30.123C143.391 29.7129 142.365 29.5078 141.271 29.5078C140.178 29.5078 139.143 29.7129 138.166 30.123C137.209 30.5137 136.369 31.0898 135.646 31.8516C134.943 32.5938 134.387 33.4922 133.977 34.5469C133.566 35.582 133.361 36.7441 133.361 38.0332C133.361 39.2441 133.566 40.3672 133.977 41.4023C134.387 42.4375 134.943 43.3359 135.646 44.0977C136.369 44.8594 137.209 45.4648 138.166 45.9141C139.143 46.3438 140.178 46.5586 141.271 46.5586C142.365 46.5586 143.391 46.3535 144.348 45.9434C145.324 45.5332 146.174 44.957 146.896 44.2148C147.619 43.4727 148.186 42.5742 148.596 41.5195C149.025 40.4648 149.24 39.3027 149.24 38.0332Z" fill="#537AF2"/>
<path d="M122.282 54H120.348L117.243 49.6934C116.481 50.377 115.67 51.0215 114.811 51.627C113.971 52.2129 113.082 52.7305 112.145 53.1797C111.207 53.6094 110.241 53.9512 109.245 54.2051C108.268 54.459 107.272 54.5859 106.256 54.5859C104.049 54.5859 101.969 54.1758 100.016 53.3555C98.0824 52.5156 96.3832 51.3633 94.9183 49.8984C93.473 48.4141 92.3304 46.666 91.4906 44.6543C90.6508 42.623 90.2308 40.416 90.2308 38.0332C90.2308 35.6699 90.6508 33.4727 91.4906 31.4414C92.3304 29.4102 93.473 27.6523 94.9183 26.168C96.3832 24.6836 98.0824 23.5215 100.016 22.6816C101.969 21.8418 104.049 21.4219 106.256 21.4219C106.959 21.4219 107.682 21.4805 108.424 21.5977C109.186 21.7148 109.918 21.9102 110.621 22.1836C111.344 22.4375 112.018 22.7793 112.643 23.209C113.268 23.6387 113.795 24.166 114.225 24.791V10.1426H122.282V54ZM114.225 38.0332C114.225 36.9395 114.01 35.8848 113.58 34.8691C113.17 33.834 112.604 32.9258 111.881 32.1445C111.159 31.3438 110.309 30.709 109.332 30.2402C108.375 29.752 107.35 29.5078 106.256 29.5078C105.162 29.5078 104.127 29.7031 103.151 30.0938C102.194 30.4844 101.354 31.0508 100.631 31.793C99.9281 32.5156 99.3715 33.4043 98.9613 34.459C98.5511 35.5137 98.3461 36.7051 98.3461 38.0332C98.3461 39.1855 98.5511 40.2793 98.9613 41.3145C99.3715 42.3496 99.9281 43.2578 100.631 44.0391C101.354 44.8203 102.194 45.4355 103.151 45.8848C104.127 46.334 105.162 46.5586 106.256 46.5586C107.35 46.5586 108.375 46.3242 109.332 45.8555C110.309 45.3672 111.159 44.7324 111.881 43.9512C112.604 43.1504 113.17 42.2422 113.58 41.2266C114.01 40.1914 114.225 39.127 114.225 38.0332Z" fill="#537AF2"/>
<path d="M102.746 54H58.2129L75.7969 30.6504H58.2129V22.6816H91.2461L73.6621 46.0312H101.246L102.746 54Z" fill="#537AF2"/>
<path d="M39.9023 42.6621C39.9023 44.3027 39.5898 45.8555 38.9648 47.3203C38.3398 48.7656 37.4805 50.0254 36.3867 51.0996C35.3125 52.1738 34.043 53.0234 32.5781 53.6484C31.1328 54.2734 29.5801 54.5859 27.9199 54.5859C26.4355 54.5859 25.0098 54.332 23.6426 53.8242C22.2754 53.2969 21.0352 52.5352 19.9219 51.5391C18.8281 52.5352 17.5977 53.2969 16.2305 53.8242C14.8828 54.332 13.457 54.5859 11.9531 54.5859C10.293 54.5859 8.74023 54.2734 7.29492 53.6484C5.84961 53.0234 4.58008 52.1738 3.48633 51.0996C2.41211 50.0254 1.5625 48.7656 0.9375 47.3203C0.3125 45.8555 0 44.3027 0 42.6621V22.6816H7.99805V42.6621C7.99805 43.209 8.0957 43.7266 8.29102 44.2148C8.50586 44.6836 8.78906 45.1035 9.14062 45.4746C9.51172 45.8262 9.93164 46.1094 10.4004 46.3242C10.8887 46.5195 11.4062 46.6172 11.9531 46.6172C12.5 46.6172 13.0176 46.5195 13.5059 46.3242C13.9941 46.1094 14.4238 45.8262 14.7949 45.4746C15.166 45.1035 15.4492 44.6836 15.6445 44.2148C15.8594 43.7266 15.9668 43.209 15.9668 42.6621V22.6816H23.9355V42.6621C23.9355 43.209 24.043 43.7266 24.2578 44.2148C24.4727 44.6836 24.7559 45.1035 25.1074 45.4746C25.4785 45.8262 25.8984 46.1094 26.3672 46.3242C26.8555 46.5195 27.373 46.6172 27.9199 46.6172C28.4668 46.6172 28.9844 46.5195 29.4727 46.3242C29.9609 46.1094 30.3809 45.8262 30.7324 45.4746C31.1035 45.1035 31.3965 44.6836 31.6113 44.2148C31.8262 43.7266 31.9336 43.209 31.9336 42.6621V22.6816H39.9023V42.6621Z" fill="#537AF2"/>
<path d="M45.3341 22.6001H53.3341V54.1001H45.3341V22.6001Z" fill="#537AF2"/>
<path d="M53.9461 6.60004C53.9461 9.14054 51.8866 11.2 49.3461 11.2C46.8056 11.2 44.7461 9.14054 44.7461 6.60004C44.7461 4.05953 46.8056 2.00004 49.3461 2.00004C51.8866 2.00004 53.9461 4.05953 53.9461 6.60004Z" stroke="#537AF2" stroke-width="4"/>
<path d="M49.8341 16.6001H57.8341L53.3341 22.6001H45.3341L49.8341 16.6001Z" fill="#537AF2"/>
<path d="M46.8341 12.1001L53.3341 10.6001L57.8341 16.6001H49.8341L46.8341 12.1001Z" fill="#537AF2"/>
</svg>
