<svg width="40" height="33" viewBox="0 0 40 33" fill="none" xmlns="http://www.w3.org/2000/svg">
<path d="M39.9023 20.6621C39.9023 22.3027 39.5898 23.8555 38.9648 25.3203C38.3398 26.7656 37.4805 28.0254 36.3867 29.0996C35.3125 30.1738 34.043 31.0234 32.5781 31.6484C31.1328 32.2734 29.5801 32.5859 27.9199 32.5859C26.4355 32.5859 25.0098 32.332 23.6426 31.8242C22.2754 31.2969 21.0352 30.5352 19.9219 29.5391C18.8281 30.5352 17.5977 31.2969 16.2305 31.8242C14.8828 32.332 13.457 32.5859 11.9531 32.5859C10.293 32.5859 8.74023 32.2734 7.29492 31.6484C5.84961 31.0234 4.58008 30.1738 3.48633 29.0996C2.41211 28.0254 1.5625 26.7656 0.9375 25.3203C0.3125 23.8555 0 22.3027 0 20.6621V0.681641H7.99805V20.6621C7.99805 21.209 8.0957 21.7266 8.29102 22.2148C8.50586 22.6836 8.78906 23.1035 9.14062 23.4746C9.51172 23.8262 9.93164 24.1094 10.4004 24.3242C10.8887 24.5195 11.4062 24.6172 11.9531 24.6172C12.5 24.6172 13.0176 24.5195 13.5059 24.3242C13.9941 24.1094 14.4238 23.8262 14.7949 23.4746C15.166 23.1035 15.4492 22.6836 15.6445 22.2148C15.8594 21.7266 15.9668 21.209 15.9668 20.6621V0.681641H23.9355V20.6621C23.9355 21.209 24.043 21.7266 24.2578 22.2148C24.4727 22.6836 24.7559 23.1035 25.1074 23.4746C25.4785 23.8262 25.8984 24.1094 26.3672 24.3242C26.8555 24.5195 27.373 24.6172 27.9199 24.6172C28.4668 24.6172 28.9844 24.5195 29.4727 24.3242C29.9609 24.1094 30.3809 23.8262 30.7324 23.4746C31.1035 23.1035 31.3965 22.6836 31.6113 22.2148C31.8262 21.7266 31.9336 21.209 31.9336 20.6621V0.681641H39.9023V20.6621Z" fill="#537AF2"/>
</svg>
